<svg width="38" height="50" fill="none" xmlns="http://www.w3.org/2000/svg"><path d="M2.028 45.22c0 .36.06.692.18.996.12.296.28.556.48.78.2.216.432.384.696.504.272.12.56.18.864.18a2.121 2.121 0 001.56-.684c.2-.224.36-.484.48-.78.12-.304.18-.636.18-.996s-.06-.688-.18-.984a2.467 2.467 0 00-.48-.78 2.089 2.089 0 00-1.56-.696c-.304 0-.592.06-.864.18a2.08 2.08 0 00-.696.516c-.2.216-.36.476-.48.78-.12.296-.18.624-.18.984zm5.88 0c0 .544-.1 1.048-.3 1.512a3.932 3.932 0 01-.792 1.224 3.64 3.64 0 01-1.164.816c-.44.192-.908.288-1.404.288-.496 0-.968-.096-1.416-.288-.44-.2-.828-.472-1.164-.816a4.24 4.24 0 01-.792-1.224 3.916 3.916 0 01-.288-1.512c0-.536.096-1.036.288-1.5.2-.472.464-.88.792-1.224a3.568 3.568 0 011.164-.816c.448-.2.92-.3 1.416-.3.496 0 .964.1 1.404.3.448.192.836.464 1.164.816.336.344.6.752.792 1.224.2.464.3.964.3 1.5zm1.139-3.78h5.88v1.38h-2.22V49h-1.44v-6.18h-2.22v-1.38zm13.494 0V49h-1.44v-3.18h-3.18V49h-1.44v-7.56h1.44v3h3.18v-3h1.44zm7.497 6.18V49h-5.34v-7.56h5.22v1.38h-3.78v1.62h3.48v1.38h-3.48v1.8h3.9zm4.32-1.38h-1.08V49h-1.44v-7.56h3c.36 0 .692.064.996.192.312.12.58.288.804.504.224.216.4.468.528.756.128.28.192.576.192.888 0 .424-.084.776-.252 1.056A2.65 2.65 0 0135.738 46l1.8 3h-1.62l-1.56-2.76zm-1.08-1.38h1.56c.304 0 .56-.1.768-.3a.989.989 0 00.312-.72.95.95 0 00-.312-.708 1.044 1.044 0 00-.768-.312h-1.56v2.04z" fill="#BE0000"/><path d="M10.132.015c.003.011.023.28.04.598.077 1.184.048 1.836-.11 2.642-.258 1.333-.872 2.237-1.918 2.817-.314.18-.896.426-.942.403-.014-.008-.1-.3-.193-.649-.148-.557-.17-.682-.165-.978.013-1.16.509-2.239 1.536-3.324A17.223 17.223 0 019.838.209c.273-.216.287-.224.294-.194zm-5.44 3.247c.742.844 1.213 1.494 1.564 2.168.259.496.496 1.387.497 1.868-.001.68-.175 1.311-.548 1.987l-.224.41-.186-.102C5.292 9.318 4.7 8.74 4.389 8.226c-.314-.52-.548-1.337-.592-2.07-.025-.422.03-1.26.126-1.842.078-.482.3-1.512.33-1.52.011-.003.206.208.439.468zm5.935 1.89c.022.086-.091 1.643-.147 2.032-.255 1.742-.891 2.862-1.992 3.521-.517.313-1.404.625-1.475.52-.02-.026-.071-.25-.114-.498-.333-1.951.533-3.463 2.906-5.077.598-.41.81-.538.822-.498zM3.14 8.91c1.567 1.153 2.425 2.058 2.85 3.014.176.39.339 1.15.33 1.535a4.88 4.88 0 01-.246 1.346c-.125.38-.09.366-.516.197-1.716-.68-2.584-2.194-2.701-4.692-.02-.429-.007-1.502.017-1.548.01-.019.132.048.266.148zm6.262 2.3c.518 2.331.392 3.828-.417 4.926-.36.486-.991 1.024-1.453 1.23l-.145.067-.178-.322c-.256-.469-.49-1.33-.486-1.811.003-.884.32-1.824.937-2.78.332-.513.991-1.337 1.474-1.84l.12-.127.148.656zM2.95 15.108c1.388.402 2.329.831 2.991 1.362.774.621 1.207 1.305 1.398 2.201.08.373.13.892.108 1.108l-.01.095-.27.004c-1.556.009-2.8-.753-3.723-2.289-.263-.435-.621-1.214-.84-1.828-.257-.707-.302-.834-.291-.837.003 0 .292.081.637.184zm7.337.14c.859 1.685 1.248 3.028 1.185 4.075-.057 1.037-.456 1.852-1.306 2.663-.12.115-.223.206-.231.204l-.239-.266a3.792 3.792 0 01-.907-1.779c-.265-1.277.09-2.72 1.137-4.582l.275-.49.086.175zm-6.454 5.215c1.935-.197 3.174-.042 4.159.523.515.292.968.736 1.313 1.288.145.228.438.85.419.883-.028.047-.505.226-.854.319-1.548.412-3.048-.146-4.674-1.741-.313-.307-1.057-1.114-1.068-1.16-.01-.032.12-.055.705-.112zm8.933-.391c.719 1.16 1.06 1.917 1.254 2.784.24 1.061.126 1.887-.385 2.775-.228.399-.655.946-.72.924-.082-.023-.579-.514-.763-.76-.577-.748-.823-1.566-.803-2.64.01-.469.211-1.489.414-2.1.17-.498.582-1.563.614-1.575.011-.003.186.264.389.592zm-6.328 4.216c1.613-.29 2.842-.197 3.747.286.7.374 1.14.806 1.6 1.558l.162.267-.087.063c-.267.19-.635.344-1.188.492-.488.126-.628.151-.915.148-1.316-.015-2.619-.65-4.245-2.082a8.1 8.1 0 01-.43-.39c-.008-.03.908-.262 1.356-.342zm5.649 2.845c1.22-.123 2.235.195 3.088.966.289.261.561.554.58.621.017.067-.52.497-.87.69-1.222.683-2.6.648-4.322-.102a16.476 16.476 0 01-1.13-.598l-.771-.434.248-.114c.867-.402 1.202-.531 2.001-.756.61-.174.924-.25 1.176-.273z" fill="#000"/></svg>