<svg width="135" height="53" fill="none" xmlns="http://www.w3.org/2000/svg"><g clip-path="url(#clip0_3042_3101)"><path d="M64.908 11.935h5.371c1.39 0 2.51.33 3.339.989.83.66 1.244 1.67 1.244 2.989s-.415 2.288-1.223 2.947c-.81.66-1.888.99-3.194.99h-2.8v4.473h-2.737V11.935zm2.717 2.226v3.566h2.426c1.43 0 2.136-.598 2.136-1.773 0-1.175-.705-1.773-2.115-1.793h-2.447zm17.46 7.379a4.096 4.096 0 01-1.556 2.247 4.652 4.652 0 01-2.696.804c-1.389 0-2.509-.433-3.359-1.278-.85-.845-1.265-2-1.265-3.401 0-1.402.435-2.536 1.286-3.443a4.235 4.235 0 013.255-1.36c1.37 0 2.448.453 3.256 1.38.809.928 1.203 2.165 1.224 3.752v.248h-6.491c.02.783.207 1.36.58 1.772.395.433.975.66 1.556.619.87 0 1.493-.433 1.846-1.299l2.364-.041zM82.7 18.9a2.679 2.679 0 00-.58-1.463 1.657 1.657 0 00-1.37-.556c-.518-.021-.995.185-1.368.535a2.478 2.478 0 00-.643 1.484h3.96zm12.692 5.423h-2.385v-6.081l-3.214 6.08h-2.82v-8.986h2.384v6.08l3.215-6.06h2.82v8.967zm-2.343-12.388h.974c0 1.67-.954 2.514-2.861 2.514-1.908 0-2.862-.845-2.862-2.514h.975c.145.762.787 1.154 1.866 1.154 1.078 0 1.742-.392 1.908-1.154zm12.214 5.297h-2.986v7.091h-2.468v-7.09h-2.965v-1.897h8.419v1.896zm9.85 7.091h-2.385v-6.08l-3.214 6.08h-2.821v-8.987h2.385v6.08l3.214-6.06h2.821v8.967zm10.659 0h-2.468v-3.772h-3.484v3.772h-2.447v-8.987h2.468v3.257h3.484v-3.257h2.467l-.02 8.987zm9.082-7.091h-4.355v7.091h-2.468v-8.987h6.823v1.896zM46.97 40.524v-2.185c.393.165.829.268 1.264.268.332.02.643-.083.892-.289a.895.895 0 00.31-.721c0-.103-.02-.206-.04-.31a2.017 2.017 0 00-.104-.33.721.721 0 00-.125-.288c-.041-.082-.083-.185-.166-.33-.083-.144-.124-.247-.145-.288l-3.504-7.338h2.903l2.696 6.266 2.654-6.266h2.8l-4.023 8.74c-.56 1.257-1.141 2.123-1.722 2.617-.58.495-1.327.742-2.26.742-.498 0-.975-.103-1.43-.288zm18.393.062H62.48l-2.509-3.71-1.057 1.071v2.639H56.57V31.99h2.344v3.401l3.172-3.4h2.8l-3.36 3.339 3.837 5.256zm3.05-8.616v1.072c.622-.865 1.514-1.298 2.696-1.298a3.48 3.48 0 012.8 1.257c.704.825 1.057 1.938 1.057 3.34 0 1.34-.353 2.431-1.037 3.235a3.4 3.4 0 01-2.737 1.237c-1.162 0-2.053-.433-2.676-1.278v4.123h-2.364V31.99l2.26-.02zm2.094 1.67a1.752 1.752 0 00-1.514.7c-.373.475-.56 1.114-.56 1.959s.187 1.484.56 1.958c.374.474.934.722 1.535.701.58.02 1.14-.247 1.493-.7.373-.475.54-1.114.54-1.918 0-.845-.188-1.484-.56-1.979a1.785 1.785 0 00-1.494-.721zm13.748 6.946H81.85a3.63 3.63 0 01-.166-.824 3.927 3.927 0 01-2.8 1.092c-.974 0-1.72-.227-2.26-.7a2.333 2.333 0 01-.83-1.918c0-.33.042-.66.146-.968a1.47 1.47 0 01.477-.701c.186-.165.394-.33.622-.474a2.74 2.74 0 01.809-.31c.352-.082.622-.144.83-.185.207-.041.518-.082.89-.124a7.6 7.6 0 001.68-.35.696.696 0 00.436-.68c0-.763-.518-1.155-1.555-1.155-.54 0-.954.103-1.203.289-.249.185-.415.536-.498 1.03H76.21c.146-1.937 1.473-2.906 4.023-2.906 2.51 0 3.775.928 3.775 2.803v3.731c-.042 1.113.041 1.876.248 2.35zm-2.592-4.184c-.27.165-.83.309-1.68.453-.704.103-1.16.248-1.368.413-.477.474-.498 1.236-.02 1.71.269.227.6.33.953.31.56.02 1.1-.145 1.535-.495.394-.35.601-.866.58-1.402v-.99zm6.284-4.432h-2.281v8.616h2.281V31.97zm9.684 8.616h-2.364v-3.628H91.93v3.628h-2.365V31.97h2.365v3.112h3.338V31.97h2.364v8.616z" fill="#212121"/><path d="M33.74 50.109a5.452 5.452 0 01-7.653.68L13.375 40.215c-2.322-1.917-2.613-5.339-.684-7.648a7.23 7.23 0 01.809-.783l10.037-7.894-.415.412c-5.807 5.689 2.322 11.852 2.322 11.852l3.733 3.112 3.878 3.237a5.344 5.344 0 01.705 7.565c0 .02-.02.02-.02.04z" fill="url(#paint0_linear_3042_3101)"/><path d="M32.95 30.135l-.145.124-.041.041-1.224 1.03-.228.186c-4.438 3.484-4.5 5.813 1.763 11.028l-3.878-3.236-3.733-3.113s-8.129-6.163-2.322-11.852l.415-.412 2.654-2.226c2.343-1.835 5.723-1.484 7.61.824l.021.041a5.378 5.378 0 01-.892 7.565z" fill="url(#paint1_linear_3042_3101)"/><path d="M1.554 2.309C3.483.04 6.925-.247 9.207 1.69l12.608 10.678a5.4 5.4 0 01.622 7.647 5.617 5.617 0 01-.809.762L11.53 28.59c.145-.145.27-.29.415-.413 5.868-5.648-2.24-11.872-2.24-11.872l-3.67-3.113-3.878-3.257a5.393 5.393 0 01-.602-7.626z" fill="url(#paint2_linear_3042_3101)"/><path d="M2.302 22.18l.145-.104.041-.04 1.12-.887.249-.186c4.458-3.463 4.541-5.771-1.68-11.027l3.857 3.256 3.712 3.133s8.088 6.225 2.24 11.873l-.415.412L9 30.713c-2.343 1.814-5.744 1.422-7.59-.907l-.02-.041c-1.867-2.309-1.473-5.69.85-7.524l.062-.062z" fill="url(#paint3_linear_3042_3101)"/><path d="M48.338 11.914v12.47H45.58v-12.47h2.758zm11.759 0v2.33h-3.775v10.14h-2.778v-10.14H49.77v-2.33h10.327zm47.384 28.672H105.2v-5.834l-3.09 5.834h-2.696V31.97h2.281v5.812l3.09-5.812h2.696v8.616zm-22.334-9.667c.619 0 1.12-.499 1.12-1.114 0-.614-.501-1.113-1.12-1.113-.618 0-1.12.499-1.12 1.113 0 .615.502 1.114 1.12 1.114zm3.297 0c.618 0 1.12-.499 1.12-1.114 0-.614-.501-1.113-1.12-1.113-.618 0-1.12.499-1.12 1.113 0 .615.502 1.114 1.12 1.114z" fill="#212121"/></g><defs><linearGradient id="paint0_linear_3042_3101" x1="7.874" y1="65.379" x2="31.055" y2="28.575" gradientUnits="userSpaceOnUse"><stop stop-color="#3717B1"/><stop offset=".11" stop-color="#3D35C1"/><stop offset=".43" stop-color="#4E87EE"/><stop offset=".57" stop-color="#55A7FF"/><stop offset="1" stop-color="#8FDBFF"/></linearGradient><linearGradient id="paint1_linear_3042_3101" x1="16.402" y1="43.023" x2="39.358" y2="23.876" gradientUnits="userSpaceOnUse"><stop stop-color="#3717B1"/><stop offset=".11" stop-color="#3D35C1"/><stop offset=".43" stop-color="#4E87EE"/><stop offset=".57" stop-color="#55A7FF"/><stop offset="1" stop-color="#8FDBFF"/></linearGradient><linearGradient id="paint2_linear_3042_3101" x1="27.568" y1="-12.836" x2="4.239" y2="23.873" gradientUnits="userSpaceOnUse"><stop stop-color="#FF9C1C"/><stop offset=".51" stop-color="#FFD91F"/></linearGradient><linearGradient id="paint3_linear_3042_3101" x1="14.302" y1="13.265" x2="-5.773" y2="29.762" gradientUnits="userSpaceOnUse"><stop stop-color="#FF9C1C"/><stop offset=".51" stop-color="#FFD91F"/></linearGradient><clipPath id="clip0_3042_3101"><path fill="#fff" d="M0 0h135v52.191H0z"/></clipPath></defs></svg>