<svg width="141" height="23" fill="none" xmlns="http://www.w3.org/2000/svg"><g clip-path="url(#clip0)" fill="#00C3B7"><path d="M.6 10.5c.5-2.6 2.8-4.4 6-4.4 3.7 0 6.6 1.6 6.6 6.6V22H10l-.4-2c-1.1 1.4-2.6 2.3-4.8 2.3-2.7 0-4.8-1.7-4.8-4.8 0-3.1 2.8-5.1 6.7-5.1h2.6v-.7c0-1.8-1.3-2.3-2.8-2.3-1.1 0-2.2.4-2.7 1.8l-3.2-.7zM5.7 19c1.8 0 3.6-1.2 3.6-3.2v-.3H6.8c-1.7-.1-2.7.6-2.7 2 0 .7.6 1.5 1.6 1.5zM76 10.5c.5-2.6 2.8-4.4 6-4.4 3.7 0 6.6 1.6 6.6 6.6V22h-3.2l-.4-2c-1.1 1.4-2.6 2.3-4.8 2.3-2.7 0-4.8-1.7-4.8-4.8 0-3.1 2.8-5.1 6.7-5.1h2.6v-.7c0-1.8-1.3-2.3-2.8-2.3-1.1 0-2.2.4-2.7 1.8l-3.2-.7zm5.1 8.5c1.8 0 3.6-1.2 3.6-3.2v-.3h-2.6c-1.7 0-2.7.6-2.7 2 .1.7.7 1.5 1.7 1.5zM92.1 22.1V6.3H96v2.6c1.1-1.9 2.9-2.8 4.6-2.8.7 0 1.3.1 1.9.3l-.7 3.6c-.5-.3-1-.5-1.6-.5-2.3 0-4.2 1.9-4.2 6.9V22l-3.9.1zM110.8 6.1c1.6 0 3.1.8 3.8 1.7V0h3.9v22.1h-3.9v-1.6c-.5.8-1.9 1.9-3.8 1.9-4.7 0-7.1-3.3-7.1-8.1s2.4-8.2 7.1-8.2zm.6 12.9c2 0 3.6-1.7 3.6-4.8 0-3.1-1.6-4.8-3.6-4.8s-3.6 1.7-3.6 4.8c0 3.1 1.6 4.8 3.6 4.8zM132.5 8.6l-2.3 2.1c-.7-1-1.8-1.4-2.6-1.4s-1.5.5-1.5 1.3c0 .7.6 1.2 1.5 1.5 2.2.8 5.7 1.5 5.7 4.8 0 2.9-2.2 5.2-5.6 5.2-3.3 0-5.5-2.3-6.2-4.2l3.1-1.7c.6 1.5 1.6 2.6 3.2 2.6 1.2 0 2-.6 2-1.7 0-1.3-2-1.6-3.9-2.4-1.7-.7-3.2-1.8-3.2-4.2 0-2.4 2-4.6 5-4.6 2 .1 3.9 1.2 4.8 2.7zM51.9 6.3l-2.8 10.9-2.7-10.9h-3.6l-2.6 10.9-2.2-6.3-.3.7-1.2 4.1 2 6.4h3.4l2.7-10.2 2.7 10.2h3.5l5-15.8h-3.9zM70.6 6.3l-2.8 10.9-2.7-10.9h-3.6l-2.6 10.9-2.2-6.3-.3.7-1.3 4.1 2.1 6.4h3.4l2.7-10.2L66 22.1h3.4l5.1-15.8h-3.9zM37.1 6.3l-5 15.7h-3.4L26 11.9l-2.7 10.2h-3.4l-5-15.7h3.9l2.8 10.8 2.7-10.8h3.6l2.7 10.8 2.8-10.8 3.7-.1zM138.4 17c1.5 0 2.6 1.1 2.6 2.6s-1.1 2.6-2.6 2.6-2.6-1.1-2.6-2.6 1.1-2.6 2.6-2.6z"/></g><defs><clipPath id="clip0"><path fill="#fff" d="M0 0h141v22.3H0z"/></clipPath></defs></svg>