<svg width="135" height="53" viewBox="0 0 135 53" fill="none" xmlns="http://www.w3.org/2000/svg">
<g clip-path="url(#clip0_3042_3101)">
<path d="M64.9082 11.9346H70.2792C71.6686 11.9346 72.7884 12.2644 73.6179 12.924C74.4474 13.5836 74.8621 14.5936 74.8621 15.9128C74.8621 17.232 74.4474 18.2008 73.6386 18.8604C72.8299 19.52 71.7515 19.8498 70.4451 19.8498H67.6455V24.3227H64.9082V11.9346ZM67.6248 14.1607V17.7267H70.0511C71.4819 17.7267 72.187 17.1289 72.187 15.954C72.187 14.7791 71.4819 14.1813 70.0718 14.1607H67.6248Z" fill="#212121"/>
<path d="M85.0846 21.5399C84.8357 22.4469 84.2965 23.2301 83.5293 23.7867C82.7412 24.3226 81.7873 24.6112 80.8334 24.5906C79.444 24.5906 78.3242 24.1577 77.474 23.3126C76.6237 22.4675 76.209 21.3132 76.209 19.9115C76.209 18.5099 76.6445 17.3762 77.4947 16.4693C78.3242 15.5623 79.527 15.0676 80.7505 15.1088C82.1191 15.1088 83.1975 15.5623 84.0062 16.4899C84.815 17.4174 85.209 18.6542 85.2297 20.2413V20.4887H78.7389C78.7597 21.272 78.9463 21.8491 79.3196 22.2614C79.7136 22.6942 80.2942 22.9209 80.8749 22.8797C81.7459 22.8797 82.368 22.4469 82.7205 21.5811L85.0846 21.5399ZM82.6998 18.9015C82.6583 18.3656 82.4509 17.8503 82.1191 17.438C81.7666 17.0464 81.2689 16.8403 80.7505 16.8815C80.232 16.8609 79.7551 17.067 79.3818 17.4174C79.0085 17.8297 78.7804 18.345 78.7389 18.9015H82.6998Z" fill="#212121"/>
<path d="M95.392 24.3227H93.0072V18.242L89.7929 24.3227H86.9727V15.3356H89.3574V21.4163L92.5717 15.3562H95.392V24.3227ZM93.0487 11.9346H94.0233C94.0233 13.6042 93.0694 14.4493 91.1616 14.4493C89.2538 14.4493 88.2998 13.6042 88.2998 11.9346H89.2745C89.4197 12.6972 90.0625 13.0889 91.1409 13.0889C92.2192 13.0889 92.8828 12.6972 93.0487 11.9346Z" fill="#212121"/>
<path d="M105.263 17.2323H102.277V24.323H99.8092V17.2323H96.8438V15.3359H105.263V17.2323Z" fill="#212121"/>
<path d="M115.113 24.323H112.728V18.2423L109.514 24.323H106.693V15.3359H109.078V21.4166L112.292 15.3565H115.113V24.323Z" fill="#212121"/>
<path d="M125.772 24.323H123.304V20.5509H119.82V24.323H117.373V15.3359H119.841V18.5927H123.325V15.3359H125.792L125.772 24.323Z" fill="#212121"/>
<path d="M134.854 17.2323H130.499V24.323H128.031V15.3359H134.854V17.2323Z" fill="#212121"/>
<path d="M46.9691 40.5238V38.3389C47.3631 38.5038 47.7986 38.6069 48.2341 38.6069C48.5659 38.6275 48.8769 38.5244 49.1258 38.3183C49.3331 38.1328 49.4576 37.8648 49.4368 37.5969C49.4368 37.4938 49.4161 37.3907 49.3953 37.2877C49.3746 37.1846 49.3331 37.0609 49.2917 36.9579C49.2709 36.8548 49.2294 36.7517 49.1672 36.6693C49.1258 36.5868 49.0843 36.4838 49.0013 36.3395C48.9184 36.1952 48.8769 36.0921 48.8562 36.0509L45.3516 28.7129H48.2548L50.9506 34.9791L53.605 28.7129H56.4046L52.3815 37.4526C51.8216 38.7099 51.241 39.5756 50.6603 40.0703C50.0797 40.565 49.3331 40.8124 48.3999 40.8124C47.9023 40.8124 47.4253 40.7093 46.9691 40.5238Z" fill="#212121"/>
<path d="M65.3629 40.5856H62.4805L59.9712 36.8754L58.9136 37.9472V40.5856H56.5703V31.9902H58.9136V35.3913L62.0864 31.9902H64.886L61.5265 35.3295L65.3629 40.5856Z" fill="#212121"/>
<path d="M68.4127 31.9704V33.0423C69.0348 32.1766 69.9265 31.7437 71.1086 31.7437C72.1869 31.7025 73.2238 32.1766 73.9081 33.0011C74.6132 33.8256 74.9657 34.9386 74.9657 36.3403C74.9657 37.6801 74.6132 38.7725 73.9288 39.5764C73.2652 40.3803 72.2491 40.8544 71.1915 40.8132C70.0302 40.8132 69.1385 40.3803 68.5164 39.5352V43.6577H66.1523V31.991L68.4127 31.9704ZM70.5072 33.64C69.9265 33.5988 69.3459 33.8668 68.9934 34.3409C68.6201 34.815 68.4334 35.4539 68.4334 36.299C68.4334 37.1442 68.6201 37.7831 68.9934 38.2572C69.3666 38.7313 69.9265 38.9787 70.5279 38.9581C71.1086 38.9787 71.6685 38.7107 72.021 38.2572C72.3943 37.7831 72.5602 37.1442 72.5602 36.3403C72.5602 35.4952 72.3735 34.8562 72.0003 34.3615C71.6477 33.8874 71.0878 33.6194 70.5072 33.64Z" fill="#212121"/>
<path d="M84.2555 40.5861H81.85C81.767 40.3182 81.7048 40.0502 81.6841 39.7616C80.9376 40.4831 79.9214 40.8747 78.8846 40.8541C77.9099 40.8541 77.1634 40.6273 76.6242 40.1533C76.0643 39.6792 75.7532 38.9783 75.7947 38.2363C75.7947 37.9065 75.8362 37.5767 75.9399 37.2675C76.0228 36.9995 76.1887 36.7522 76.4168 36.5667C76.6035 36.4018 76.8108 36.2369 77.0389 36.0926C77.2878 35.9483 77.5574 35.8453 77.8477 35.7834C78.2002 35.701 78.4698 35.6391 78.6772 35.5979C78.8846 35.5567 79.1956 35.5155 79.5689 35.4742C80.1495 35.4124 80.7094 35.3093 81.2486 35.1238C81.5182 35.0208 81.7048 34.7322 81.6841 34.4436C81.6841 33.6809 81.1657 33.2893 80.1288 33.2893C79.5896 33.2893 79.1749 33.3924 78.926 33.5779C78.6772 33.7634 78.5113 34.1138 78.4283 34.6085H76.2094C76.3546 32.6709 77.6818 31.7021 80.2325 31.7021C82.7417 31.7021 84.0067 32.6297 84.0067 34.5054V38.2363C83.9652 39.3494 84.0481 40.112 84.2555 40.5861ZM81.6634 36.4018C81.3938 36.5667 80.8339 36.711 79.9836 36.8553C79.2786 36.9583 78.8223 37.1026 78.615 37.2675C78.138 37.7416 78.1173 38.5043 78.5942 38.9783C78.8638 39.2051 79.1956 39.3081 79.5482 39.2875C80.1081 39.3081 80.6472 39.1432 81.0827 38.7928C81.4767 38.4424 81.6841 37.9271 81.6634 37.3912V36.4018Z" fill="#212121"/>
<path d="M87.9471 31.9697H85.666V40.5857H87.9471V31.9697Z" fill="#212121"/>
<path d="M97.6313 40.5857H95.2672V36.9579H91.9285V40.5857H89.5645V31.9697H91.9285V35.0822H95.2672V31.9697H97.6313V40.5857Z" fill="#212121"/>
<path d="M33.7393 50.1087C31.8107 52.3967 28.3891 52.7059 26.0872 50.7889L13.3752 40.2147C11.0527 38.2978 10.7623 34.8761 12.6909 32.5675C12.9397 32.2789 13.2093 32.0316 13.4997 31.7842L23.5365 23.8896L23.1218 24.3019C17.3153 29.9909 25.4444 36.1541 25.4444 36.1541L29.1771 39.2665L33.055 42.5027C35.3568 44.399 35.6679 47.7795 33.76 50.0675C33.76 50.0881 33.7393 50.0881 33.7393 50.1087Z" fill="url(#paint0_linear_3042_3101)"/>
<path d="M32.9505 30.1353L32.8053 30.259L32.7639 30.3002L31.5404 31.3308L31.3123 31.5163C26.8745 34.9998 26.8123 37.329 33.0749 42.544L29.197 39.3078L25.4643 36.1954C25.4643 36.1954 17.3353 30.0322 23.1417 24.3432L23.5565 23.9309L26.2109 21.7048C28.5542 19.8703 31.9344 20.2207 33.8215 22.5293L33.8422 22.5705C35.6878 24.8997 35.2938 28.2802 32.9505 30.1353Z" fill="url(#paint1_linear_3042_3101)"/>
<path d="M1.55445 2.30864C3.48302 0.0412669 6.92542 -0.247307 9.20652 1.69026L21.8148 12.3675C24.1167 14.3051 24.3862 17.7267 22.4369 20.0147C22.1881 20.3033 21.9185 20.5507 21.6282 20.7774L11.5291 28.5895C11.6743 28.4452 11.7987 28.3009 11.9439 28.1773C17.8125 22.5295 9.70422 16.3045 9.70422 16.3045L6.03371 13.192L2.15583 9.93524C-0.125273 7.99767 -0.394858 4.57601 1.55445 2.30864Z" fill="url(#paint2_linear_3042_3101)"/>
<path d="M2.30168 22.1793L2.44684 22.0763L2.48831 22.0351L3.60813 21.1487L3.85698 20.9632C8.3155 17.5003 8.39845 15.1917 2.17725 9.93555L6.0344 13.1923L9.74638 16.3254C9.74638 16.3254 17.8339 22.5504 11.986 28.1982L11.5713 28.6104L8.99983 30.7129C6.65652 32.5268 3.25559 32.1352 1.40997 29.806L1.38923 29.7647C-0.477125 27.4561 -0.0831154 24.0757 2.23947 22.2412C2.2602 22.2206 2.28094 22.2 2.30168 22.1793Z" fill="url(#paint3_linear_3042_3101)"/>
<path d="M48.3381 11.9141V24.3846H45.5801V11.9141H48.3381Z" fill="#212121"/>
<path d="M60.0967 11.9141V14.2433H56.3225V24.3846H53.5437V14.2433H49.7695V11.9141H60.0967Z" fill="#212121"/>
<path d="M107.481 40.5857H105.2V34.7524L102.11 40.5857H99.4141V31.9697H101.695V37.7824L104.785 31.9697H107.481V40.5857Z" fill="#212121"/>
<path d="M85.1472 30.9185C85.7656 30.9185 86.267 30.4202 86.267 29.8055C86.267 29.1907 85.7656 28.6924 85.1472 28.6924C84.5287 28.6924 84.0273 29.1907 84.0273 29.8055C84.0273 30.4202 84.5287 30.9185 85.1472 30.9185Z" fill="#212121"/>
<path d="M88.444 30.9185C89.0625 30.9185 89.5638 30.4202 89.5638 29.8055C89.5638 29.1907 89.0625 28.6924 88.444 28.6924C87.8256 28.6924 87.3242 29.1907 87.3242 29.8055C87.3242 30.4202 87.8256 30.9185 88.444 30.9185Z" fill="#212121"/>
</g>
<defs>
<linearGradient id="paint0_linear_3042_3101" x1="7.87378" y1="65.3787" x2="31.0552" y2="28.5751" gradientUnits="userSpaceOnUse">
<stop stop-color="#3717B1"/>
<stop offset="0.11" stop-color="#3D35C1"/>
<stop offset="0.43" stop-color="#4E87EE"/>
<stop offset="0.57" stop-color="#55A7FF"/>
<stop offset="1" stop-color="#8FDBFF"/>
</linearGradient>
<linearGradient id="paint1_linear_3042_3101" x1="16.4024" y1="43.0229" x2="39.3576" y2="23.8762" gradientUnits="userSpaceOnUse">
<stop stop-color="#3717B1"/>
<stop offset="0.11" stop-color="#3D35C1"/>
<stop offset="0.43" stop-color="#4E87EE"/>
<stop offset="0.57" stop-color="#55A7FF"/>
<stop offset="1" stop-color="#8FDBFF"/>
</linearGradient>
<linearGradient id="paint2_linear_3042_3101" x1="27.5677" y1="-12.8357" x2="4.23855" y2="23.8727" gradientUnits="userSpaceOnUse">
<stop stop-color="#FF9C1C"/>
<stop offset="0.51" stop-color="#FFD91F"/>
</linearGradient>
<linearGradient id="paint3_linear_3042_3101" x1="14.3022" y1="13.2654" x2="-5.77348" y2="29.762" gradientUnits="userSpaceOnUse">
<stop stop-color="#FF9C1C"/>
<stop offset="0.51" stop-color="#FFD91F"/>
</linearGradient>
<clipPath id="clip0_3042_3101">
<rect width="135" height="52.1907" fill="white"/>
</clipPath>
</defs>
</svg>
