<svg width="38" height="50" viewBox="0 0 38 50" fill="none" xmlns="http://www.w3.org/2000/svg">
<path d="M2.02789 45.2199C2.02789 45.5799 2.08789 45.9119 2.20789 46.2159C2.32789 46.5119 2.48789 46.7719 2.68789 46.9959C2.88789 47.2119 3.11989 47.3799 3.38389 47.4999C3.65589 47.6199 3.94389 47.6799 4.24789 47.6799C4.54389 47.6799 4.82789 47.6199 5.09989 47.4999C5.37189 47.3799 5.60789 47.2119 5.80789 46.9959C6.00789 46.7719 6.16789 46.5119 6.28789 46.2159C6.40789 45.9119 6.46789 45.5799 6.46789 45.2199C6.46789 44.8599 6.40789 44.5319 6.28789 44.2359C6.16789 43.9319 6.00789 43.6719 5.80789 43.4559C5.60789 43.2319 5.37189 43.0599 5.09989 42.9399C4.82789 42.8199 4.54389 42.7599 4.24789 42.7599C3.94389 42.7599 3.65589 42.8199 3.38389 42.9399C3.11989 43.0599 2.88789 43.2319 2.68789 43.4559C2.48789 43.6719 2.32789 43.9319 2.20789 44.2359C2.08789 44.5319 2.02789 44.8599 2.02789 45.2199ZM7.90789 45.2199C7.90789 45.7639 7.80789 46.2679 7.60789 46.7319C7.41589 47.1959 7.15189 47.6039 6.81589 47.9559C6.48789 48.2999 6.09989 48.5719 5.65189 48.7719C5.21189 48.9639 4.74389 49.0599 4.24789 49.0599C3.75189 49.0599 3.27989 48.9639 2.83189 48.7719C2.39189 48.5719 2.00389 48.2999 1.66789 47.9559C1.33989 47.6039 1.07589 47.1959 0.875891 46.7319C0.683891 46.2679 0.587891 45.7639 0.587891 45.2199C0.587891 44.6839 0.683891 44.1839 0.875891 43.7199C1.07589 43.2479 1.33989 42.8399 1.66789 42.4959C2.00389 42.1439 2.39189 41.8719 2.83189 41.6799C3.27989 41.4799 3.75189 41.3799 4.24789 41.3799C4.74389 41.3799 5.21189 41.4799 5.65189 41.6799C6.09989 41.8719 6.48789 42.1439 6.81589 42.4959C7.15189 42.8399 7.41589 43.2479 7.60789 43.7199C7.80789 44.1839 7.90789 44.6839 7.90789 45.2199Z" fill="#BE0000"/>
<path d="M9.04695 41.4399H14.927V42.8199H12.707V48.9999H11.267V42.8199H9.04695V41.4399Z" fill="#BE0000"/>
<path d="M22.5413 41.4399V48.9999H21.1013V45.8199H17.9213V48.9999H16.4813V41.4399H17.9213V44.4399H21.1013V41.4399H22.5413Z" fill="#BE0000"/>
<path d="M30.0385 47.6199V48.9999H24.6985V41.4399H29.9185V42.8199H26.1385V44.4399H29.6185V45.8199H26.1385V47.6199H30.0385Z" fill="#BE0000"/>
<path d="M34.3576 46.2399H33.2776V48.9999H31.8376V41.4399H34.8376C35.1976 41.4399 35.5296 41.5039 35.8336 41.6319C36.1456 41.7519 36.4136 41.9199 36.6376 42.1359C36.8616 42.3519 37.0376 42.6039 37.1656 42.8919C37.2936 43.1719 37.3576 43.4679 37.3576 43.7799C37.3576 44.2039 37.2736 44.5559 37.1056 44.8359C36.9376 45.1159 36.7496 45.3439 36.5416 45.5199C36.3016 45.7279 36.0336 45.8879 35.7376 45.9999L37.5376 48.9999H35.9176L34.3576 46.2399ZM33.2776 44.8599H34.8376C35.1416 44.8599 35.3976 44.7599 35.6056 44.5599C35.8136 44.3519 35.9176 44.1119 35.9176 43.8399C35.9176 43.5679 35.8136 43.3319 35.6056 43.1319C35.3976 42.9239 35.1416 42.8199 34.8376 42.8199H33.2776V44.8599Z" fill="#BE0000"/>
<path d="M26.8681 0.0150228C26.8651 0.026162 26.8451 0.295225 26.8281 0.612803C26.751 1.79722 26.78 2.4492 26.939 3.2551C27.1961 4.58821 27.8102 5.49154 28.8561 6.0725C29.1702 6.25164 29.7525 6.4983 29.7986 6.47478C29.8127 6.4666 29.8983 6.17525 29.9913 5.82622C30.1397 5.26926 30.1612 5.14376 30.1565 4.84822C30.1437 3.68758 29.6479 2.60897 28.6209 1.52405C28.3175 1.2006 27.574 0.529226 27.1624 0.208771C26.8899 -0.00701161 26.876 -0.0146819 26.8681 0.0150228Z" fill="#000" style="transform:translateX(1px)"/>
<path d="M32.3086 3.26182C31.5668 4.10604 31.0954 4.7559 30.7448 5.42998C30.4855 5.92558 30.248 6.81672 30.2471 7.29766C30.2487 7.9781 30.4225 8.60901 30.795 9.28492L31.0198 9.69477L31.2059 9.59324C31.7087 9.31764 32.3001 8.73954 32.6119 8.22611C32.9257 7.70525 33.1592 6.88862 33.2031 6.15668C33.2283 5.7339 33.1733 4.89604 33.0779 4.31388C32.9997 3.83172 32.7771 2.80207 32.7474 2.79416C32.7362 2.79119 32.541 3.00163 32.3086 3.26182Z" fill="#000" style="transform:translateX(1px)"/>
<path d="M26.374 5.15249C26.3512 5.23789 26.465 6.79529 26.5205 7.18389C26.7759 8.92616 27.4118 10.0461 28.5124 10.7052C29.0294 11.018 29.9165 11.3299 29.988 11.2257C30.007 11.199 30.059 10.9742 30.101 10.7269C30.4341 8.77562 29.5685 7.26442 27.1957 5.64984C26.5972 5.23982 26.3849 5.11164 26.374 5.15249Z" fill="#000" style="transform:translateX(1px)"/>
<path d="M33.8609 8.90992C32.2933 10.063 31.4359 10.9679 31.01 11.9241C30.8344 12.3148 30.6716 13.0747 30.6806 13.4589C30.6876 13.8504 30.7836 14.3851 30.9262 14.8048C31.0518 15.1843 31.0156 15.1707 31.4423 15.002C33.1582 14.3219 34.027 12.8076 34.144 10.3096C34.1627 9.88114 34.1505 8.80812 34.127 8.76209C34.1161 8.74328 33.9948 8.81038 33.8609 8.90992Z" fill="#000" style="transform:translateX(1px)"/>
<path d="M27.5987 11.2094C27.0807 13.541 27.2066 15.038 28.0153 16.1363C28.3749 16.6219 29.0068 17.1601 29.4686 17.3667L29.6139 17.4332L29.7913 17.1107C30.0474 16.6421 30.2807 15.7816 30.2779 15.2997C30.2748 14.416 29.9567 13.4762 29.3406 12.5207C29.0084 12.0066 28.3493 11.1828 27.8669 10.6804L27.7458 10.5527L27.5987 11.2094Z" fill="#000" style="transform:translateX(1px)"/>
<path d="M34.0503 15.1081C32.663 15.5099 31.7216 15.9391 31.0592 16.4704C30.2854 17.0914 29.8526 17.7754 29.6617 18.671C29.5823 19.0435 29.5313 19.5628 29.5531 19.7794L29.5638 19.8737L29.8331 19.8779C31.3892 19.8869 32.634 19.125 33.5562 17.5892C33.8192 17.1542 34.1779 16.3749 34.3971 15.7613C34.6532 15.0541 34.699 14.9271 34.6878 14.9241C34.6841 14.9231 34.3958 15.0053 34.0503 15.1081Z" fill="#000" style="transform:translateX(1px)"/>
<path d="M26.7132 15.2485C25.8549 16.9326 25.465 18.2762 25.528 19.323C25.5856 20.3604 25.9848 21.1746 26.8343 21.9856C26.9546 22.1012 27.0576 22.1922 27.066 22.1905C27.0717 22.1841 27.1788 22.0655 27.304 21.9239C27.7821 21.3832 28.0696 20.8116 28.2113 20.1454C28.4762 18.8679 28.1212 17.4252 27.0746 15.5635L26.7998 15.0727L26.7132 15.2485Z" fill="#000" style="transform:translateX(1px)"/>
<path d="M33.1674 20.4634C31.2321 20.2658 29.9939 20.421 29.0085 20.9856C28.4933 21.2778 28.0409 21.722 27.695 22.274C27.5508 22.502 27.2578 23.1239 27.2769 23.1568C27.3041 23.2038 27.7813 23.3827 28.1303 23.4757C29.6783 23.8882 31.179 23.3297 32.8047 21.7348C33.117 21.4283 33.8611 20.6205 33.873 20.5759C33.8819 20.5425 33.7527 20.52 33.1674 20.4634Z" fill="#000" style="transform:translateX(1px)"/>
<path d="M24.2343 20.0723C23.5155 21.2328 23.1748 21.9891 22.9796 22.8557C22.7404 23.9174 22.8544 24.7431 23.3653 25.6309C23.593 26.0296 24.0197 26.5768 24.0853 26.5545C24.1667 26.5324 24.6636 26.0405 24.8482 25.7954C25.4255 25.0465 25.6712 24.2291 25.6515 23.1542C25.641 22.6861 25.4397 21.6661 25.2367 21.0552C25.0674 20.5568 24.6552 19.4925 24.6228 19.4799C24.6116 19.4769 24.4369 19.7445 24.2343 20.0723Z" fill="#000" style="transform:translateX(1px)"/>
<path d="M30.5621 24.2875C28.9498 23.997 27.72 24.0909 26.816 24.5737C26.116 24.9479 25.675 25.3792 25.216 26.1317L25.0534 26.3986L25.1401 26.4615C25.4074 26.652 25.7759 26.8059 26.329 26.9533C26.8163 27.0792 26.9567 27.1046 27.2437 27.1016C28.5598 27.0865 29.8623 26.4513 31.4883 25.0195C31.7217 24.8152 31.9154 24.6402 31.9184 24.6291C31.9263 24.5994 31.0101 24.3671 30.5621 24.2875Z" fill="#000" style="transform:translateX(1px)"/>
<path d="M24.9137 27.1325C23.6938 27.0102 22.6787 27.3282 21.8252 28.099C21.5369 28.3602 21.264 28.6533 21.2462 28.7201C21.2284 28.787 21.766 29.2165 22.1162 29.4093C23.3376 30.0927 24.7146 30.058 26.4372 29.3081C26.6352 29.2217 27.1445 28.9518 27.5666 28.7103L28.3385 28.2758L28.0905 28.162C27.2235 27.7599 26.8882 27.6308 26.0893 27.406C25.4797 27.2316 25.1659 27.1559 24.9137 27.1325Z" fill="#000" style="transform:translateX(1px)"/>
<path d="M10.1324 0.0150237C10.1354 0.026163 10.1554 0.295226 10.1724 0.612804C10.2495 1.79722 10.2205 2.4492 10.0615 3.2551C9.80444 4.58821 9.19032 5.49154 8.14439 6.0725C7.83031 6.25164 7.24796 6.4983 7.20193 6.47478C7.18782 6.4666 7.10223 6.17525 7.00922 5.82622C6.86079 5.26926 6.83928 5.14376 6.84402 4.84822C6.85678 3.68758 7.35261 2.60897 8.37955 1.52405C8.683 1.2006 9.42652 0.529227 9.83812 0.208772C10.1106 -0.00701064 10.1245 -0.0146809 10.1324 0.0150237Z" fill="#000"/>
<path d="M4.69185 3.26182C5.4337 4.10604 5.90508 4.7559 6.25568 5.42998C6.51498 5.92558 6.75246 6.81672 6.75339 7.29766C6.75183 7.9781 6.57802 8.60901 6.20547 9.28492L5.98071 9.69477L5.79462 9.59324C5.29177 9.31764 4.70035 8.73954 4.38858 8.22611C4.07484 7.70525 3.84131 6.88862 3.79735 6.15668C3.77215 5.7339 3.8272 4.89604 3.92255 4.31388C4.00081 3.83172 4.22342 2.80207 4.25312 2.79416C4.26425 2.79119 4.45949 3.00163 4.69185 3.26182Z" fill="#000"/>
<path d="M10.6265 5.15249C10.6493 5.23789 10.5355 6.79529 10.48 7.18389C10.2246 8.92616 9.58871 10.0461 8.48807 10.7052C7.97104 11.018 7.08402 11.3299 7.01251 11.2257C6.99346 11.199 6.94152 10.9742 6.89947 10.7269C6.56635 8.77562 7.43198 7.26442 9.80479 5.64984C10.4033 5.23982 10.6156 5.11165 10.6265 5.15249Z" fill="#000"/>
<path d="M3.13955 8.90992C4.70722 10.063 5.56464 10.9679 5.99044 11.9241C6.16611 12.3148 6.32886 13.0747 6.3199 13.4589C6.31293 13.8504 6.21684 14.3851 6.07424 14.8048C5.94872 15.1843 5.98485 15.1707 5.55821 15.002C3.84225 14.3219 2.97352 12.8076 2.85651 10.3096C2.83775 9.88114 2.85001 8.80812 2.87352 8.76209C2.88442 8.74328 3.00567 8.81038 3.13955 8.90992Z" fill="#000"/>
<path d="M9.40182 11.2094C9.91977 13.541 9.79387 15.038 8.98521 16.1363C8.62556 16.6219 7.99367 17.1601 7.53185 17.3667L7.38656 17.4332L7.20916 17.1107C6.95307 16.6421 6.7198 15.7816 6.72258 15.2997C6.72565 14.416 7.04378 13.4762 7.65988 12.5207C7.99206 12.0066 8.65121 11.1828 9.13361 10.6804L9.25465 10.5527L9.40182 11.2094Z" fill="#000"/>
<path d="M2.95016 15.1081C4.3375 15.5099 5.27887 15.9391 5.94131 16.4704C6.71512 17.0914 7.14788 17.7754 7.33883 18.671C7.41823 19.0435 7.46915 19.5628 7.44735 19.7794L7.43669 19.8737L7.16743 19.8779C5.61126 19.8869 4.36651 19.125 3.44433 17.5892C3.18131 17.1542 2.82255 16.3749 2.60336 15.7613C2.3473 15.0541 2.30153 14.9271 2.31266 14.9241C2.31638 14.9231 2.60468 15.0053 2.95016 15.1081Z" fill="#000"/>
<path d="M10.2873 15.2485C11.1456 16.9326 11.5355 18.2762 11.4725 19.323C11.4149 20.3604 11.0156 21.1746 10.1662 21.9856C10.0459 22.1012 9.94293 22.1922 9.93452 22.1905C9.92882 22.1841 9.82168 22.0655 9.69647 21.9239C9.2184 21.3832 8.93089 20.8116 8.78916 20.1454C8.52426 18.8679 8.87932 17.4252 9.92591 15.5635L10.2007 15.0727L10.2873 15.2485Z" fill="#000"/>
<path d="M3.83308 20.4634C5.76842 20.2658 7.00656 20.421 7.99197 20.9856C8.5072 21.2778 8.95954 21.722 9.30546 22.274C9.44971 22.502 9.74266 23.1239 9.7236 23.1568C9.69637 23.2038 9.2192 23.3827 8.87024 23.4757C7.32218 23.8882 5.82151 23.3297 4.19574 21.7348C3.88345 21.4283 3.13937 20.6205 3.1275 20.5759C3.11859 20.5425 3.24778 20.52 3.83308 20.4634Z" fill="#000"/>
<path d="M12.7657 20.0723C13.4845 21.2328 13.8252 21.9891 14.0204 22.8557C14.2596 23.9174 14.1456 24.7431 13.6347 25.6309C13.407 26.0296 12.9803 26.5768 12.9147 26.5545C12.8333 26.5324 12.3364 26.0405 12.1518 25.7954C11.5745 25.0465 11.3288 24.2291 11.3485 23.1542C11.359 22.6861 11.5603 21.6661 11.7633 21.0552C11.9326 20.5568 12.3448 19.4925 12.3772 19.4799C12.3884 19.4769 12.5631 19.7445 12.7657 20.0723Z" fill="#000"/>
<path d="M6.43834 24.288C8.05073 23.9975 9.28046 24.0914 10.1845 24.5742C10.8845 24.9484 11.3255 25.3797 11.7845 26.1322L11.9471 26.3991L11.8604 26.462C11.5931 26.6525 11.2246 26.8064 10.6715 26.9538C10.1842 27.0797 10.0438 27.1051 9.75675 27.1021C8.44064 27.087 7.13821 26.4518 5.51218 25.02C5.27882 24.8157 5.08507 24.6407 5.0821 24.6296C5.07418 24.5998 5.99039 24.3676 6.43834 24.288Z" fill="#000"/>
<path d="M12.0868 27.1325C13.3067 27.0102 14.3218 27.3282 15.1753 28.099C15.4636 28.3602 15.7365 28.6533 15.7543 28.7201C15.7721 28.787 15.2345 29.2165 14.8843 29.4093C13.6629 30.0927 12.2859 30.058 10.5633 29.3081C10.3653 29.2217 9.85602 28.9518 9.43385 28.7103L8.662 28.2758L8.90999 28.162C9.77697 27.7599 10.1123 27.6308 10.9112 27.406C11.5208 27.2316 11.8346 27.1559 12.0868 27.1325Z" fill="#000"/>
</svg>
