<svg width="681" height="148" fill="none" xmlns="http://www.w3.org/2000/svg"><path d="M464.58 4.11a43.382 43.382 0 00-42.502 51.867A43.381 43.381 0 00508 47.49a43.429 43.429 0 00-43.42-43.38zm0 80.13a36.762 36.762 0 01-25.99-62.757 36.76 36.76 0 0162.75 26.007 36.881 36.881 0 01-36.76 36.75z" fill="#232323"/><path fill-rule="evenodd" clip-rule="evenodd" d="M464.58 0a47.49 47.49 0 1047.49 47.5A47.54 47.54 0 00464.58 0zm0 80.13a32.647 32.647 0 01-30.166-20.158 32.646 32.646 0 017.082-35.583 32.654 32.654 0 0135.586-7.07A32.65 32.65 0 01497.23 47.49a32.768 32.768 0 01-32.65 32.64z" fill="#232323"/><path d="M626.12 13.15v31h39.81v6.74h-39.81v30.94h45.66v6.61h-52.15V6.66h52.15v6.49h-45.66zM592.62 88.57h-7l-48.07-70.72v70.72h-6.74v-82h7.25l.38.51 47.44 69.83V6.53h6.74v82.04zM405.77 6.53v6.74h-28.62v75.3h-6.74v-75.3H341.8V6.53h63.97zM326.36 67.84a22.301 22.301 0 01-9 17.17C312 89 305 91 297.23 91a7.687 7.687 0 01-1.65-.13c-8.4-.26-15.77-2.93-21.11-7.89a25.557 25.557 0 01-8-15.77v-1.38h6.64l.1 1.24a20.396 20.396 0 006.24 11.58c4.07 3.69 9.66 5.59 16.53 5.85 6.87.26 12.72-1.27 16.92-4.33a15.367 15.367 0 006.61-12.33c.26-5.47-2.16-9.67-7.12-13-4.58-3-10.81-4.83-15.77-6.36l-2.67-.76-1.95-.61c-4.58-1.4-10.18-3.18-14.76-6.36-5.59-3.82-8.39-8.91-8.14-15.14a19.364 19.364 0 018.65-15.77c5.22-3.69 12.59-5.73 20.48-5.47 12.47.51 22.26 6.74 26.33 16.79l.13.38-6.49 1.78c-3.2-7.5-10.79-12.21-20.2-12.46-6.74-.13-12.21 1.27-16 3.94a13.688 13.688 0 00-6.14 11.2c-.12 4.2 1.91 7.51 6.62 10.3 4.32 2.55 10.17 4.46 15.52 6l1.4.38c5.34 1.66 12.08 3.69 17.55 7.38 6.48 4.04 9.79 10.15 9.41 17.78zM205.36 6.53h-25.57v82h25.57c22.76 0 41.33-18.44 41.33-41a41.282 41.282 0 00-41.33-41zm0 75.43h-19V13.15h19a34.406 34.406 0 0132.321 21.102 34.413 34.413 0 01-7.611 37.841 34.41 34.41 0 01-24.71 9.867z" fill="#232323"/><path fill-rule="evenodd" clip-rule="evenodd" d="M630.23 17.26v22.81h39.81v14.97h-39.81v22.67h45.66v14.85h-60.37V2.54h60.37v14.72h-45.66zM596.74 2.42v90.26h-13.9l-41.18-61.5v61.5h-14.97V2.42h13.42l1.68 2.23 39.98 58.84V2.42h14.97zM409.89 2.42v14.97h-28.62v75.29H366.3V17.39h-28.62V2.42h72.21zM330.47 68a26.443 26.443 0 01-10.62 20.25c-6.18 4.56-14.08 6.78-22.54 6.78h-.05a12.177 12.177 0 01-2-.14c-9-.33-17.33-3.26-23.47-9a29.674 29.674 0 01-9.31-18.3v-5.87h14.54l.4 4.83a16.265 16.265 0 004.92 9.06c3.16 2.85 7.72 4.55 13.91 4.78 6.19.23 11.09-1.17 14.35-3.54a11.281 11.281 0 004.92-9.12v-.08c.18-3.79-1.32-6.72-5.29-9.36-3.73-2.49-8.86-4.06-13.78-5.57l-.88-.27-2.72-.78-2.08-.67c-4.52-1.38-10.68-3.31-15.84-6.89-6.59-4.49-10.22-10.84-9.92-18.65a23.497 23.497 0 0110.4-19c6.07-4.29 14.37-6.49 23-6.21 13.77.56 25.19 7.54 30 19.35l.05.12 1.54 4.64-14.14 3.88-1.41-3.31C312 19.18 306 15.19 297.9 15c-6.18-.12-10.69 1.19-13.56 3.19a9.576 9.576 0 00-4.36 8 5.655 5.655 0 00.85 3.34 11.002 11.002 0 003.74 3.29c3.83 2.25 9.21 4 14.53 5.56l1.42.38h.06l.56.18c5.16 1.59 12.18 3.76 18 7.68 7.71 4.79 11.78 12.26 11.33 21.38zM205.36 2.42h-29.68v90.26h29.68c25 0 45.45-20.25 45.45-45.07a45.401 45.401 0 00-45.45-45.19zm0 75.42h-14.84V17.26h14.84a30.29 30.29 0 010 60.58zM112.64 17.26v22.81h39.68v14.97h-39.68v22.67h45.53v14.85H97.79V2.54h60.38v14.72h-45.53zM82.28 92.57H64.69l-19.2-31.49H21.76l-8.83-14.7h36.56a14.62 14.62 0 000-29.24H9.11L.28 2.57h49.21a29.24 29.24 0 0112.07 55.81l20.72 34.19z" fill="#232323"/><path d="M3 74.56h18v18H3v-18z" fill="#E70000"/><path d="M278.68 136.82a6.126 6.126 0 01-2.48 4.73 9.13 9.13 0 01-5.46 1.63 2.487 2.487 0 01-.44 0 8.8 8.8 0 01-5.73-2.15 7.143 7.143 0 01-2.21-4.32v-.8h2.41v.65c.31 2 2 4.19 5.67 4.3a7.001 7.001 0 004.25-1.08 3.697 3.697 0 001.59-3c.1-2.81-2.56-3.82-5.77-4.77a6.461 6.461 0 01-.71-.19l-.46-.14c-2.43-.77-6.43-2-6.29-6a5.497 5.497 0 012.39-4.39 9.002 9.002 0 015.56-1.49 7.68 7.68 0 017.18 4.61l.26.63-2.24.79-.24-.57a5.37 5.37 0 00-5-3.14 7.003 7.003 0 00-4 1 3.267 3.267 0 00-1.46 2.67c-.07 2.08 2.37 3 5.57 3.95l.3.09c2.79.81 7.48 2.22 7.31 6.99zM298.52 120.43v2.41h-7.5v19.71h-2.41v-19.71h-7.5v-2.41h17.41zM308.8 120.49h-2.13l-8.35 22h2.53l2.22-5.91h9.33l2.22 5.91h2.53l-8.35-22zm-4.8 13.8l3.9-9.58 3.58 9.58H304zM335.73 120.43l-8.64 11.43v10.69h-2.4v-10.69l-8.67-11.43H319l6.88 9.11 6.9-9.11h2.95zM368.7 120.37v14.15a8.758 8.758 0 01-8.63 8.66 8.675 8.675 0 01-6.121-2.539 8.675 8.675 0 01-2.539-6.121v-14.15h2.41v14.15a6.237 6.237 0 0010.558 4.25 6.24 6.24 0 001.912-4.25v-14.15h2.41zM390.94 120.43v22.06l-.65.06h-1.66l-12.12-17.37v17.37h-2.41v-22.12h2.38l11.83 17.42.23-17.42h2.4zM399.39 120.43h-2.41v22.12h2.41v-22.12zM423.07 143.63c-.64.55-2.31 1.21-4.55.17a10.498 10.498 0 00-1.15-.45l1-.3a11.682 11.682 0 006.702-19.446 11.679 11.679 0 10-12.892 18.776l-3.16.9.63 2.44.66-.33a12.405 12.405 0 017.23.54 7.812 7.812 0 003.37.79 5.59 5.59 0 003.73-1.3l.49-.43-1.58-1.79-.48.43zm-15.9-12.11a9.333 9.333 0 015.743-8.633 9.326 9.326 0 0110.174 2.005 9.335 9.335 0 012.038 10.167 9.338 9.338 0 01-8.615 5.771 9.329 9.329 0 01-9.34-9.31zM450.26 120.37v14.15a8.758 8.758 0 01-8.63 8.66 8.675 8.675 0 01-6.121-2.539 8.675 8.675 0 01-2.539-6.121v-14.15h2.41v14.15a6.24 6.24 0 0012.47 0v-14.15h2.41zM458.04 122.81v7.49h10.41v2.38h-10.41v7.49h11.94v2.35h-14.29v-22.06h14.29v2.35h-11.94zM476.68 142.58a1.52 1.52 0 10-.001-3.041 1.52 1.52 0 00.001 3.041zM508 131.14a6.065 6.065 0 002.28-4.72 6.003 6.003 0 00-1.757-4.243 6.003 6.003 0 00-4.243-1.757h-8.81v22.15h9.11a6.23 6.23 0 003.42-11.43zm-10.23-8.42h6.52a3.7 3.7 0 010 7.4h-6.52v-7.4zm6.82 17.54h-6.82v-7.85h6.82a3.933 3.933 0 013.732 3.925 3.934 3.934 0 01-3.732 3.925zM518.07 122.81v7.49h10.41v2.38h-10.41v7.49h11.94v2.35h-14.29v-22.06h14.29v2.35h-11.94zM558.1 119.8a11.695 11.695 0 00-11.465 13.971 11.69 11.69 0 0023.155-2.281 11.7 11.7 0 00-11.69-11.69zm0 21a9.31 9.31 0 119.31-9.31 9.336 9.336 0 01-2.736 6.574 9.336 9.336 0 01-6.574 2.736zM591.46 120.43v22.06l-.65.06h-1.66l-12.07-17.09-.05 17.09h-2.41v-22.12h2.37l11.82 17.42.25-17.42h2.4zM625.26 120.43v2.41h-7.5v19.71h-2.41v-19.71h-7.5v-2.41h17.41zM637.87 119.8a11.695 11.695 0 00-11.465 13.971 11.69 11.69 0 0023.155-2.281 11.7 11.7 0 00-11.69-11.69zm0 21a9.31 9.31 0 119.31-9.31 9.336 9.336 0 01-2.736 6.574 9.336 9.336 0 01-6.574 2.736zM662.6 120.4h-8.24v22.18h2.35v-8.31h5.89a6.94 6.94 0 000-13.87zm0 11.52h-5.89v-9.17h5.89a4.588 4.588 0 013.106 7.754 4.588 4.588 0 01-3.106 1.416zM677.69 141.06a1.515 1.515 0 01-.938 1.404 1.529 1.529 0 01-.879.087 1.531 1.531 0 01-.778-.416 1.531 1.531 0 01-.416-.778 1.529 1.529 0 01.647-1.561 1.52 1.52 0 012.364 1.264z" fill="#424242"/></svg>