<svg width="681" height="148" fill="none" xmlns="http://www.w3.org/2000/svg"><path fill-rule="evenodd" clip-rule="evenodd" d="M464.6 0c-26.2 0-47.5 21.3-47.5 47.5S438.4 95 464.6 95s47.5-21.3 47.5-47.5C512.2 21.3 490.9 0 464.6 0zm0 80.1c-18.1 0-32.8-14.7-32.8-32.6 0-18 14.7-32.6 32.8-32.6 18 0 32.6 14.7 32.6 32.6 0 18.1-14.5 32.6-32.6 32.6zM630.2 17.3v22.8H670V55h-39.8v22.7h45.7v14.9h-60.4V2.5h60.4v14.8h-45.7zM596.7 2.4v90.3h-13.9l-41.1-61.5v61.5h-15V2.4h13.4l1.7 2.3 40 58.8V2.4h14.9zM409.9 2.4v15h-28.6v75.3h-15V17.4h-28.6v-15h72.2zM330.5 68c-.3 8.1-4.1 15.2-10.6 20.3-6.2 4.6-14.1 6.8-22.5 6.8-.5 0-1.2 0-2-.1-9.1-.3-17.3-3.3-23.5-9-5.1-4.6-8.4-11.1-9.3-18.3v-6h14.5l.4 4.8c.6 3.5 2.3 6.7 4.9 9.1 3.2 2.9 7.7 4.5 13.9 4.8 6.2.2 11.1-1.2 14.4-3.5 3.2-2.3 4.8-5.5 4.9-9.1v-.1c.2-3.8-1.3-6.7-5.3-9.4-3.7-2.5-8.9-4.1-13.8-5.6l-.9-.3-2.7-.8-1.9-.6c-4.5-1.4-10.7-3.3-15.8-6.9-6.6-4.5-10.2-10.8-9.9-18.7.2-7.7 3.9-14.5 10.4-19 6.1-4.3 14.4-6.5 23-6.2 13.8.6 25.2 7.5 30 19.3v.1l1.5 4.6-14.1 3.9-1.4-3.3c-2.4-5.8-8.4-9.7-16.5-10-6.2-.1-10.7 1.2-13.6 3.2-2.9 2.1-4.3 4.7-4.4 8 0 1.3.3 2.4.9 3.3.6 1 1.8 2.1 3.7 3.3 3.8 2.3 9.2 4 14.5 5.6l1.4.4h.1c.2.1.4.1.6.2 5.2 1.6 12.2 3.8 18 7.7 7.4 4.9 11.5 12.4 11.1 21.5zM205.4 2.4h-29.7v90.3h29.7c25 0 45.5-20.3 45.5-45.1-.1-24.9-20.5-45.2-45.5-45.2zm0 75.4h-14.8V17.3h14.8c17 0 30.6 13.6 30.6 30.3 0 16.8-13.7 30.2-30.6 30.2zM112.6 17.3v22.8h39.7V55h-39.7v22.7h45.6v14.9H97.8V2.5h60.4v14.8h-45.6zM82.3 92.6H64.7L45.5 61.1H21.8L13 46.4h36.6c8 0 14.7-6.5 14.7-14.7-.1-8.1-6.7-14.6-14.7-14.6H9.1L.3 2.6h49.2c16.1 0 29.1 13 29.1 29.1 0 11.6-6.8 22-17 26.7l20.7 34.2z" fill="#fff"/><path d="M3 74.6h18v18H3v-18z" fill="#E70000"/><path d="M278.7 136.8c-.1 1.9-1 3.6-2.5 4.7s-3.3 1.6-5.5 1.6h-.4c-2.3-.1-4.3-.8-5.7-2.2a6.9 6.9 0 01-2.2-4.3V135.8h2.4v.7c.3 2 2 4.2 5.7 4.3 1.7 0 3.2-.3 4.3-1.1 1-.7 1.6-1.8 1.6-3 .1-2.8-2.6-3.8-5.8-4.8-.2 0-.5-.1-.7-.2l-.5-.1c-2.4-.8-6.4-2-6.3-6 .1-1.8.9-3.3 2.4-4.4 1.5-1 3.4-1.5 5.6-1.5 3.4.1 6.1 1.9 7.2 4.6l.3.6-2.2.8-.2-.6c-.8-1.9-2.7-3.1-5-3.1-1.7 0-3.1.3-4 1-.9.7-1.4 1.6-1.5 2.7-.1 2.1 2.4 3 5.6 4l.3.1c2.6.8 7.2 2.2 7.1 7zM298.5 120.4v2.4H291v19.7h-2.4v-19.7h-7.5v-2.4h17.4zM308.8 120.5h-2.1l-8.3 22h2.5l2.2-5.9h9.3l2.2 5.9h2.5l-8.3-22zm-4.8 13.8l3.9-9.6 3.6 9.6H304zM335.7 120.4l-8.6 11.5v10.6h-2.4v-10.6l-8.7-11.5h3l6.9 9.1 6.9-9.1h2.9zM368.7 120.4v14.2c0 4.7-4 8.7-8.6 8.7-4.8 0-8.7-3.9-8.7-8.7v-14.2h2.4v14.2c0 3.5 2.8 6.2 6.3 6.2s6.2-2.7 6.2-6.2v-14.2h2.4zM390.9 120.4v22.1h-2.3l-12.1-17.3v17.3h-2.4v-22.1h2.4l11.8 17.4.2-17.4h2.4zM399.4 120.4H397v22.1h2.4v-22.1zM423.1 143.6c-.6.5-2.3 1.2-4.5.2-.4-.2-.8-.3-1.2-.5l1-.3c5.6-.9 9.8-5.8 9.8-11.5 0-6.5-5.3-11.7-11.7-11.7-6.5 0-11.7 5.2-11.7 11.7 0 4.9 3 9.1 7.4 10.9l-3.2.9.6 2.4.7-.3c.4-.1 4.1-.9 7.2.5 1 .5 2.2.8 3.4.8 1.5 0 2.8-.4 3.7-1.3l.5-.4-1.6-1.8-.4.4zm-15.9-12.1c0-5.1 4.2-9.3 9.3-9.3 5.1 0 9.3 4.2 9.3 9.3 0 5.1-4.2 9.3-9.3 9.3-5.1 0-9.3-4.1-9.3-9.3zM450.3 120.4v14.2c0 4.7-4 8.7-8.6 8.7-4.8 0-8.7-3.9-8.7-8.7v-14.2h2.4v14.2c0 3.5 2.8 6.2 6.3 6.2s6.2-2.7 6.2-6.2v-14.2h2.4zM458 122.8v7.5h10.5v2.4H458v7.5h12v2.3h-14.3v-22H470v2.3h-12zM476.7 142.6a1.5 1.5 0 10-.001-3.001 1.5 1.5 0 00.001 3.001zM508 131.1c1.4-1.1 2.3-2.9 2.3-4.7 0-3.3-2.7-6-6-6h-8.8v22.2h9.1c3.4 0 6.2-2.8 6.2-6.2 0-2.2-1-4.1-2.8-5.3zm-10.2-8.4h6.5c2 0 3.7 1.7 3.7 3.7s-1.7 3.7-3.7 3.7h-6.5v-7.4zm6.8 17.6h-6.8v-7.9h6.8c2.2 0 3.9 1.8 3.9 3.9 0 2.2-1.7 4-3.9 4zM518.1 122.8v7.5h10.4v2.4h-10.4v7.5H530v2.3h-14.3v-22H530v2.3h-11.9zM558.1 119.8c-6.4 0-11.7 5.2-11.7 11.7 0 6.4 5.2 11.7 11.7 11.7 6.4 0 11.7-5.3 11.7-11.7 0-6.5-5.3-11.7-11.7-11.7zm0 21c-5.1 0-9.3-4.2-9.3-9.3 0-5.1 4.2-9.3 9.3-9.3 5.1 0 9.3 4.2 9.3 9.3 0 5.1-4.2 9.3-9.3 9.3zM591.5 120.4v22.1h-2.3l-12.1-17-.1 17h-2.4v-22.1h2.4l11.8 17.4.3-17.4h2.4zM625.3 120.4v2.4h-7.5v19.7h-2.5v-19.7h-7.5v-2.4h17.5zM637.9 119.8c-6.5 0-11.7 5.2-11.7 11.7 0 6.4 5.2 11.7 11.7 11.7 6.4 0 11.7-5.3 11.7-11.7 0-6.5-5.3-11.7-11.7-11.7zm0 21c-5.2 0-9.3-4.2-9.3-9.3 0-5.1 4.2-9.3 9.3-9.3 5.1 0 9.3 4.2 9.3 9.3 0 5.1-4.2 9.3-9.3 9.3zM662.6 120.4h-8.2v22.2h2.4v-8.3h5.9c3.8 0 6.9-3.1 6.9-6.9-.1-3.9-3.2-7-7-7zm0 11.5h-5.9v-9.2h5.9c2.5 0 4.6 2.1 4.6 4.6 0 2.6-2.1 4.6-4.6 4.6zM677.7 141.1c0 .8-.7 1.5-1.5 1.5s-1.5-.7-1.5-1.5.7-1.5 1.5-1.5c.8-.1 1.5.6 1.5 1.5z" fill="#929292"/></svg>