<svg version="1.0" xmlns="http://www.w3.org/2000/svg" width="682.667" height="682.667" viewBox="0 0 512 512"><path d="M447 134.7c-31.7 29.7-59.1 51.4-87.5 69.3-18.8 11.9-28.5 17.3-62.3 34.4-3.1 1.5-19.6 8.8-36.7 16.1C189.4 285 179 290.2 142 314.8c-21.5 14.2-32.9 22.8-52.6 39.8-11.9 10.2-37.5 34-38.1 35.3-.5 1.1 15.2 21.4 24 31.2 13.9 15.5 34.8 32.8 52.9 43.7 56.5 34.1 121.2 44.2 185.6 29.1 5-1.2 9.2-2.5 9.2-2.9 0-.4-1.9-2-4.3-3.7-9.7-7-22.1-20.9-30-33.8l-3.7-6 14.9-.5c13.1-.4 15.3-.8 17.7-2.6 5.2-3.9 6.9-7.1 6.9-13.3 0-4.8-.5-6.4-2.9-9.5-3.2-4.3-7.8-6.6-13.1-6.6h-3.6l.8-3.8c3.8-17.6-8-32.2-26.1-32.2h-6.9l.6-5.8c.9-8.1 5.2-22.3 9.8-32.1 16.9-36.1 49.8-61.1 89-67.7 14.6-2.4 35.8-1.6 49.1 2 12.9 3.4 25.5 8.9 36.1 15.9 9.3 6 23.3 18.8 29.4 26.8 2 2.7 4 4.9 4.4 4.9.7 0 4.4-15.3 6.4-27 7.1-40.7 2.1-89.6-13.1-128-5.6-14.4-20.8-43.9-23.3-45.4-.3-.2-6.7 5.2-14.1 12.1zm-25.9 64.2c2.1 2.2 2.9 3.9 2.9 6.6 0 4.5-4.5 9.5-8.5 9.5-6.3 0-11.5-5.9-10.1-11.6 1.9-7.4 10.3-9.8 15.7-4.5zm39.4 22.7c2.4.9 4.5 5.8 4.5 10.4v4h4.4c5.8 0 7.4.7 9.1 4.1 2.9 5.5-.7 9.9-8 9.9h-5.3l-.4 5.5c-.6 6.6-2.8 9.5-7.3 9.5s-6.7-2.9-7.3-9.5l-.4-5.5h-5.3c-7.2 0-9.8-3-8.2-9.3.9-3.2 4-4.7 9.8-4.7 3.8 0 3.9-.1 3.9-3.4 0-8.4 4.6-13.2 10.5-11zM143.9 352.7c8.6 6.4 7.6 19.7-2 24.5-9.6 5-20.9-2-20.9-12.8 0-11.2 13.9-18.3 22.9-11.7zm112.9 122.8c5.1 5.9.6 15.5-7.3 15.5-7.4 0-12.1-8.8-7.9-14.8 3.4-4.9 11.2-5.2 15.2-.7z"/></svg>